<svg width="56" height="49" viewBox="0 0 56 49" fill="none" xmlns="http://www.w3.org/2000/svg">
<path d="M45.2573 48.7273C51.1886 48.7273 56 43.7693 56 37.6521C56 31.5386 51.1886 26.5769 45.2573 26.5769C34.5182 26.5769 41.6764 5.16847 56 5.16847L56 3.43323e-05C30.4363 -0.00365671 20.4193 48.7273 45.2573 48.7273ZM14.3112 48.7273C20.2388 48.7273 25.0502 43.7693 25.0502 37.6521C25.0502 31.5386 20.2388 26.5769 14.3112 26.5769C3.56846 26.5769 10.7266 5.16847 25.0502 5.16847L25.0502 3.16266e-05C-0.509788 -0.00365942 -10.5267 48.7273 14.3112 48.7273Z" fill="#13161A"/>
</svg>
